<svg width="18" height="14" viewBox="0 0 18 14" fill="none" xmlns="http://www.w3.org/2000/svg">
<path fill-rule="evenodd" clip-rule="evenodd" d="M0.470072 7.52997C0.329622 7.38934 0.250732 7.19872 0.250732 6.99997C0.250732 6.80122 0.329622 6.61059 0.470072 6.46997L6.47007 0.469968C6.53873 0.396281 6.62153 0.337179 6.71353 0.296187C6.80553 0.255195 6.90485 0.233154 7.00555 0.231377C7.10625 0.229601 7.20628 0.248124 7.29967 0.285845C7.39306 0.323566 7.47789 0.379712 7.54911 0.45093C7.62033 0.522149 7.67647 0.606983 7.71419 0.700371C7.75192 0.79376 7.77044 0.893787 7.76866 0.99449C7.76689 1.09519 7.74485 1.19451 7.70385 1.28651C7.66286 1.37851 7.60376 1.46131 7.53007 1.52997L2.81007 6.24997L17.0001 6.24997C17.199 6.24997 17.3898 6.32899 17.5304 6.46964C17.6711 6.61029 17.7501 6.80106 17.7501 6.99997C17.7501 7.19888 17.6711 7.38965 17.5304 7.5303C17.3898 7.67095 17.199 7.74997 17.0001 7.74997L2.81007 7.74997L7.53007 12.47C7.60376 12.5386 7.66286 12.6214 7.70385 12.7134C7.74485 12.8054 7.76689 12.9047 7.76866 13.0054C7.77044 13.1061 7.75192 13.2062 7.7142 13.2996C7.67647 13.393 7.62033 13.4778 7.54911 13.549C7.47789 13.6202 7.39306 13.6764 7.29967 13.7141C7.20628 13.7518 7.10625 13.7703 7.00555 13.7686C6.90485 13.7668 6.80553 13.7447 6.71353 13.7037C6.62153 13.6628 6.53873 13.6037 6.47007 13.53L0.470072 7.52997Z" fill="white"/>
</svg>
