<svg width="18" height="18" viewBox="0 0 18 18" fill="none" xmlns="http://www.w3.org/2000/svg">
<path d="M15.0885 15.63C13.8014 16.8123 12.1979 17.5943 10.4738 17.8805C8.74966 18.1667 6.9795 17.9447 5.37944 17.2416C3.77938 16.5386 2.41865 15.3848 1.46337 13.9213C0.508092 12.4577 -0.000391364 10.7477 2.26006e-07 9H1.5C1.49989 10.5106 1.95597 11.9861 2.80851 13.2332C3.66106 14.4803 4.87032 15.4409 6.27796 15.9891C7.6856 16.5374 9.226 16.6478 10.6975 16.3059C12.1689 15.964 13.5028 15.1857 14.5245 14.073H12.345C12.1461 14.073 11.9553 13.994 11.8147 13.8533C11.674 13.7127 11.595 13.5219 11.595 13.323C11.595 13.1241 11.674 12.9333 11.8147 12.7927C11.9553 12.652 12.1461 12.573 12.345 12.573H15.8385C16.0374 12.573 16.2282 12.652 16.3688 12.7927C16.5095 12.9333 16.5885 13.1241 16.5885 13.323V16.8135C16.5885 17.0124 16.5095 17.2032 16.3688 17.3438C16.2282 17.4845 16.0374 17.5635 15.8385 17.5635C15.6396 17.5635 15.4488 17.4845 15.3082 17.3438C15.1675 17.2032 15.0885 17.0124 15.0885 16.8135V15.6285V15.63ZM3.4755 3.9285H5.655C5.85391 3.9285 6.04468 4.00751 6.18533 4.14817C6.32598 4.28882 6.405 4.47958 6.405 4.6785C6.405 4.87741 6.32598 5.06817 6.18533 5.20883C6.04468 5.34948 5.85391 5.4285 5.655 5.4285H2.16C1.96109 5.4285 1.77032 5.34948 1.62967 5.20883C1.48902 5.06817 1.41 4.87741 1.41 4.6785V1.185C1.41 0.986083 1.48902 0.795318 1.62967 0.654665C1.77032 0.514013 1.96109 0.434995 2.16 0.434995C2.35891 0.434995 2.54968 0.514013 2.69033 0.654665C2.83098 0.795318 2.91 0.986083 2.91 1.185V2.37C4.19693 1.1862 5.80084 0.402931 7.52571 0.115912C9.25059 -0.171107 11.0217 0.0505547 12.6227 0.753809C14.2236 1.45706 15.585 2.61145 16.5405 4.07589C17.496 5.54034 18.0042 7.25141 18.003 9H16.503C16.5031 7.48915 16.047 6.01348 15.1942 4.76628C14.3415 3.51908 13.132 2.5585 11.7241 2.01035C10.3162 1.4622 8.77553 1.35204 7.30396 1.69431C5.83239 2.03657 4.4985 2.8153 3.477 3.9285H3.4755Z" fill="white"/>
</svg>
